REM DIRINDEX 1\2,1\3,1\4,1\5
REM DIRNAME cjc004,folder01,folder02,folder03,folder04
TITLE ""
FILE "1Q_t_1769-1778.mp3" MP3
  TRACK 01 AUDIO
    TITLE "3:cjc004_6214"
    INDEX 01 00:00:00
  TRACK 02 AUDIO
    TITLE "0:"
    INDEX 01 00:01:19
  TRACK 03 AUDIO
    TITLE "4:cjc004_6215"
    INDEX 01 00:01:52
  TRACK 04 AUDIO
    TITLE "0:"
    INDEX 01 00:03:17
  TRACK 05 AUDIO
    TITLE "5:cjc004_6216"
    INDEX 01 00:03:43
  TRACK 06 AUDIO
    TITLE "0:"
    INDEX 01 00:08:44
  TRACK 07 AUDIO
    TITLE "3:cjc004_6217"
    INDEX 01 00:09:18
  TRACK 08 AUDIO
    TITLE "0:"
    INDEX 01 00:10:43
  TRACK 09 AUDIO
    TITLE "4:cjc004_6218"
    INDEX 01 00:11:01
  TRACK 10 AUDIO
    TITLE "0:"
    INDEX 01 00:12:20
  TRACK 11 AUDIO
    TITLE "5:cjc004_6219"
    INDEX 01 00:12:42
  TRACK 12 AUDIO
    TITLE "0:"
    INDEX 01 00:18:17
  TRACK 13 AUDIO
    TITLE "3:cjc004_6220"
    INDEX 01 00:18:74
  TRACK 14 AUDIO
    TITLE "0:"
    INDEX 01 00:20:22
  TRACK 15 AUDIO
    TITLE "4:cjc004_6221"
    INDEX 01 00:20:55
  TRACK 16 AUDIO
    TITLE "0:"
    INDEX 01 00:21:68
  TRACK 17 AUDIO
    TITLE "5:cjc004_6222"
    INDEX 01 00:22:15
  TRACK 18 AUDIO
    TITLE "0:"
    INDEX 01 00:26:44
  TRACK 19 AUDIO
    TITLE "3:cjc004_6223"
    INDEX 01 00:27:28
  TRACK 20 AUDIO
    TITLE "0:"
    INDEX 01 00:28:55
  TRACK 21 AUDIO
    TITLE "4:cjc004_6224"
    INDEX 01 00:29:11
  TRACK 22 AUDIO
    TITLE "0:"
    INDEX 01 00:30:67
  TRACK 23 AUDIO
    TITLE "5:cjc004_6225"
    INDEX 01 00:31:22
  TRACK 24 AUDIO
    TITLE "0:"
    INDEX 01 00:35:35
  TRACK 25 AUDIO
    TITLE "3:cjc004_6226"
    INDEX 01 00:36:15
  TRACK 26 AUDIO
    TITLE "0:"
    INDEX 01 00:37:44
  TRACK 27 AUDIO
    TITLE "4:cjc004_6227"
    INDEX 01 00:38:00
  TRACK 28 AUDIO
    TITLE "0:"
    INDEX 01 00:38:73
  TRACK 29 AUDIO
    TITLE "5:cjc004_6228"
    INDEX 01 00:39:25
  TRACK 30 AUDIO
    TITLE "0:"
    INDEX 01 00:43:25
  TRACK 31 AUDIO
    TITLE "3:cjc004_6229"
    INDEX 01 00:44:05
  TRACK 32 AUDIO
    TITLE "0:"
    INDEX 01 00:45:20
  TRACK 33 AUDIO
    TITLE "4:cjc004_6230"
    INDEX 01 00:45:51
  TRACK 34 AUDIO
    TITLE "0:"
    INDEX 01 00:46:60
  TRACK 35 AUDIO
    TITLE "5:cjc004_6231"
    INDEX 01 00:47:11
  TRACK 36 AUDIO
    TITLE "0:"
    INDEX 01 00:52:02
  TRACK 37 AUDIO
    TITLE "3:cjc004_6232"
    INDEX 01 00:52:55
  TRACK 38 AUDIO
    TITLE "0:"
    INDEX 01 00:54:07
  TRACK 39 AUDIO
    TITLE "4:cjc004_6233"
    INDEX 01 00:54:36
  TRACK 40 AUDIO
    TITLE "0:"
    INDEX 01 00:55:38
  TRACK 41 AUDIO
    TITLE "5:cjc004_6234"
    INDEX 01 00:55:61
  TRACK 42 AUDIO
    TITLE "0:"
    INDEX 01 00:59:65
  TRACK 43 AUDIO
    TITLE "3:cjc004_6235"
    INDEX 01 01:00:47
  TRACK 44 AUDIO
    TITLE "0:"
    INDEX 01 01:01:74
  TRACK 45 AUDIO
    TITLE "4:cjc004_6236"
    INDEX 01 01:02:26
  TRACK 46 AUDIO
    TITLE "0:"
    INDEX 01 01:03:41
  TRACK 47 AUDIO
    TITLE "5:cjc004_6237"
    INDEX 01 01:03:67
  TRACK 48 AUDIO
    TITLE "0:"
    INDEX 01 01:09:38
  TRACK 49 AUDIO
    TITLE "3:cjc004_6238"
    INDEX 01 01:10:26
  TRACK 50 AUDIO
    TITLE "0:"
    INDEX 01 01:11:41
  TRACK 51 AUDIO
    TITLE "4:cjc004_6239"
    INDEX 01 01:11:66
  TRACK 52 AUDIO
    TITLE "0:"
    INDEX 01 01:13:14
  TRACK 53 AUDIO
    TITLE "5:cjc004_6240"
    INDEX 01 01:13:38
  TRACK 54 AUDIO
    TITLE "0:"
    INDEX 01 01:17:71
  TRACK 55 AUDIO
    TITLE "3:cjc004_6241"
    INDEX 01 01:18:49
  TRACK 56 AUDIO
    TITLE "0:"
    INDEX 01 01:19:62
  TRACK 57 AUDIO
    TITLE "4:cjc004_6242"
    INDEX 01 01:20:14
  TRACK 58 AUDIO
    TITLE "0:"
    INDEX 01 01:21:20
  TRACK 59 AUDIO
    TITLE "5:cjc004_6243"
    INDEX 01 01:21:43
  TRACK 60 AUDIO
    TITLE "0:"
    INDEX 01 01:26:13
